<svg width="135" height="30" viewBox="0 0 135 30" fill="none" xmlns="http://www.w3.org/2000/svg">
<path d="M118.605 15.0864C118.605 11.4067 115.821 8.43018 111.888 8.43018C108.033 8.43018 105.288 11.2924 105.288 15.2252C105.288 19.1777 108.111 22.0596 112.161 22.0596C114.73 22.0596 116.891 20.9102 118.235 18.5739L115.509 17.3083C114.867 18.4764 113.465 19.2358 112.161 19.2358C110.506 19.2358 108.598 17.9899 108.481 16.2574H118.508C118.571 15.8703 118.604 15.4787 118.605 15.0864ZM108.539 13.9614C108.773 12.2092 109.98 11.0608 111.908 11.0608C113.815 11.0608 114.983 12.1858 115.139 13.9614H108.539Z" fill="white"/>
<path d="M81.074 8.42725C77.1215 8.42725 74.3184 11.2707 74.3184 15.2813C74.3184 19.2526 77.1215 22.0566 81.1134 22.0566C85.124 22.0566 87.9271 19.2526 87.9271 15.3394C87.9271 11.3091 85.0462 8.42725 81.074 8.42725ZM81.1134 19.0772C79.1268 19.0772 77.9005 17.5979 77.9005 15.3001C77.9005 12.9638 79.1465 11.3672 81.1134 11.3672C83.099 11.3672 84.3449 12.9441 84.3449 15.3001C84.3449 17.6176 83.1187 19.0772 81.1134 19.0772Z" fill="white"/>
<path d="M67.0004 8.43089C65.3814 8.43089 64.1617 8.98401 62.942 10.3556H62.5417C61.7223 9.11714 60.3854 8.43089 58.8854 8.43089C58.1365 8.42357 57.3965 8.59424 56.7265 8.92886C56.0564 9.26348 55.4754 9.75248 55.0314 10.3556H54.6311L54.6114 10.3368V8.69808H51.2607V21.7706H54.8814V15.0431C54.8814 12.8709 55.7964 11.594 57.3779 11.594C58.8451 11.594 59.7976 12.6806 59.7976 14.3381V21.7706H63.437V15.0431C63.437 12.8868 64.352 11.594 65.9532 11.594C67.4007 11.594 68.3345 12.6806 68.3345 14.3578V21.7706H71.9748V13.919C71.9748 10.5084 70.1448 8.43089 67.0004 8.43089Z" fill="white"/>
<path d="M126.656 17.2369H126.397C126.397 17.0044 124.819 12.8644 123.784 10.2994L123.137 8.69531H119.489L124.664 21.8137L122.625 26.8125H126.247L133.7 8.7H130.05L129.455 10.0716L127.436 15.0656C126.867 16.4606 126.634 17.1075 126.656 17.2369Z" fill="white"/>
<path d="M97.9688 8.43115C96.3488 8.43115 94.9575 9.13615 94.0238 10.3943H93.6422L93.6047 10.3755V8.69834H90.2522V21.7708H93.8728V15.0818C93.8728 12.948 94.9041 11.613 96.5981 11.613C98.1797 11.613 99.3422 12.7943 99.3422 14.6618V21.7699H102.963V13.8818C102.963 10.6802 100.867 8.43115 97.9688 8.43115Z" fill="white"/>
<path d="M26.6709 0.9375C18.8484 0.9375 12.5625 7.26562 12.5625 15C12.5625 22.7981 18.9103 29.0625 26.6691 29.0625C34.4278 29.0625 40.7812 22.7344 40.7812 15C40.7812 7.26562 34.4297 0.9375 26.6709 0.9375ZM26.6709 20.2416C23.7853 20.2416 21.4134 17.8762 21.4134 15C21.4134 12.1237 23.7853 9.75844 26.6709 9.75844C29.5566 9.75844 31.9294 12.1237 31.9294 15C31.8647 17.8762 29.5566 20.2416 26.6709 20.2416Z" fill="#8B3FFD"/>
<path d="M12.5626 5.02295V25.4773H7.56387L1.15137 5.02295H12.5626Z" fill="#8B3FFD"/>
</svg>
