<svg width="52" height="40" viewBox="0 0 52 40" fill="none" xmlns="http://www.w3.org/2000/svg">
<path d="M9.35398 39.7731V37.1249C9.36951 36.9021 9.33738 36.6786 9.25972 36.4693C9.18206 36.26 9.06067 36.0696 8.90363 35.9109C8.74658 35.7522 8.55751 35.6288 8.34901 35.5489C8.14051 35.469 7.91739 35.4346 7.6945 35.4477C7.40281 35.4287 7.11134 35.4883 6.85051 35.6203C6.58968 35.7522 6.36902 35.9517 6.21154 36.198C6.06801 35.9591 5.86271 35.7633 5.61726 35.6313C5.37181 35.4992 5.0953 35.4358 4.81684 35.4477C4.57411 35.4355 4.3324 35.4869 4.11564 35.5969C3.89889 35.7068 3.7146 35.8714 3.58103 36.0745V35.5537H2.66296V39.7731H3.58981V37.4338C3.56977 37.2895 3.58195 37.1425 3.62547 37.0034C3.66899 36.8643 3.74277 36.7366 3.84151 36.6294C3.94025 36.5222 4.0615 36.4383 4.19655 36.3835C4.3316 36.3288 4.47711 36.3046 4.62261 36.3128C5.23168 36.3128 5.54068 36.71 5.54068 37.425V39.7731H6.46753V37.4338C6.449 37.2897 6.46223 37.1433 6.5063 37.0049C6.55037 36.8665 6.62422 36.7394 6.72265 36.6326C6.82107 36.5258 6.9417 36.4418 7.07605 36.3865C7.21039 36.3313 7.35521 36.3061 7.50032 36.3128C8.12701 36.3128 8.42713 36.71 8.42713 37.425V39.7731H9.35398ZM23.0714 35.5537H21.5708V34.2737H20.644V35.5537H19.7877V36.3922H20.644V38.3166C20.644 39.2963 21.0236 39.879 22.1093 39.879C22.5149 39.8802 22.9126 39.767 23.2568 39.5524L22.992 38.7667C22.7458 38.9136 22.4664 38.9956 22.1799 39.0051C21.7209 39.0051 21.5708 38.7225 21.5708 38.2989V36.3922H23.0714V35.5537ZM30.9012 35.4477C30.6774 35.4411 30.4559 35.495 30.2601 35.6038C30.0644 35.7125 29.9016 35.8721 29.789 36.0656V35.5537H28.8797V39.7731H29.7978V37.4073C29.7978 36.71 30.0979 36.3216 30.6982 36.3216C30.8946 36.3189 31.0895 36.3549 31.2719 36.4275L31.5544 35.5625C31.3447 35.4874 31.1238 35.4486 30.9012 35.4477ZM19.0639 35.8891C18.5443 35.5801 17.9468 35.4269 17.3426 35.4477C16.2745 35.4477 15.586 35.9597 15.586 36.7983C15.586 37.4868 16.098 37.9105 17.0424 38.0429L17.475 38.1047C17.9781 38.1752 18.2165 38.3077 18.2165 38.546C18.2165 38.8726 17.881 39.0581 17.2543 39.0581C16.7502 39.0726 16.2559 38.9171 15.8508 38.6166L15.4183 39.3317C15.953 39.7051 16.5935 39.897 17.2455 39.879C18.4636 39.879 19.1698 39.3052 19.1698 38.5019C19.1698 37.7604 18.6137 37.372 17.6957 37.2396L17.2632 37.1778C16.8659 37.1249 16.5482 37.0455 16.5482 36.763C16.5482 36.454 16.8482 36.2686 17.3514 36.2686C17.8135 36.2756 18.2661 36.4002 18.6667 36.6306L19.0639 35.8891ZM43.6565 35.4477C43.4326 35.4411 43.2112 35.495 43.0154 35.6038C42.8197 35.7125 42.6569 35.8721 42.5443 36.0656V35.5537H41.6351V39.7731H42.553V37.4073C42.553 36.71 42.8532 36.3216 43.4534 36.3216C43.6498 36.3189 43.8448 36.3549 44.0273 36.4275L44.3097 35.5625C44.1 35.4874 43.8791 35.4486 43.6565 35.4477ZM31.828 37.6633C31.8158 37.9605 31.866 38.257 31.9752 38.5337C32.0845 38.8104 32.2505 39.0612 32.4625 39.2699C32.6746 39.4786 32.9279 39.6406 33.2063 39.7455C33.4847 39.8504 33.782 39.8959 34.079 39.879C34.6302 39.9067 35.1717 39.7272 35.5972 39.3758L35.1559 38.6343C34.8385 38.8762 34.4515 39.0093 34.0525 39.0139C33.7085 38.993 33.3854 38.8416 33.1492 38.5906C32.913 38.3397 32.7814 38.008 32.7814 37.6633C32.7814 37.3187 32.913 36.987 33.1492 36.736C33.3854 36.485 33.7085 36.3337 34.0525 36.3128C34.4516 36.3173 34.8385 36.4504 35.1559 36.6924L35.5972 35.9509C35.1717 35.5995 34.6301 35.4201 34.079 35.4477C33.782 35.4308 33.4847 35.4763 33.2064 35.5812C32.928 35.6861 32.6746 35.8481 32.4626 36.0567C32.2506 36.2654 32.0846 36.5162 31.9753 36.7928C31.866 37.0695 31.8158 37.366 31.828 37.6633ZM40.4257 37.6633V35.5537H39.5077V36.0656C39.351 35.8637 39.1482 35.7022 38.9163 35.5947C38.6844 35.4872 38.4301 35.4368 38.1748 35.4477C37.6059 35.4756 37.0696 35.7212 36.6769 36.1337C36.2841 36.5461 36.0651 37.0938 36.0651 37.6634C36.0651 38.2329 36.2841 38.7806 36.6769 39.1931C37.0696 39.6055 37.6059 39.8511 38.1748 39.879C38.4301 39.8899 38.6844 39.8395 38.9163 39.732C39.1482 39.6245 39.351 39.463 39.5077 39.261V39.7731H40.4257V37.6633ZM37.0096 37.6633C37.0238 37.4143 37.1106 37.1749 37.2593 36.9747C37.4079 36.7744 37.6119 36.6221 37.8461 36.5364C38.0804 36.4507 38.3345 36.4354 38.5773 36.4925C38.8201 36.5495 39.0409 36.6764 39.2124 36.8574C39.384 37.0384 39.4988 37.2657 39.5428 37.5112C39.5867 37.7567 39.5578 38.0096 39.4597 38.2389C39.3616 38.4682 39.1985 38.6637 38.9906 38.8014C38.7827 38.9392 38.539 39.013 38.2896 39.0139C38.1148 39.0162 37.9414 38.9824 37.7803 38.9144C37.6192 38.8464 37.474 38.7458 37.3537 38.6189C37.2335 38.492 37.1408 38.3416 37.0816 38.1771C37.0223 38.0127 36.9978 37.8377 37.0096 37.6633ZM25.9315 35.4477C25.359 35.4779 24.8204 35.7286 24.4288 36.1472C24.0371 36.5658 23.8228 37.1199 23.8308 37.6931C23.8388 38.2663 24.0685 38.8142 24.4716 39.2217C24.8748 39.6293 25.4202 39.8648 25.9933 39.879C26.6231 39.9011 27.239 39.6906 27.7234 39.2875L27.2732 38.6079C26.9246 38.8872 26.4929 39.0425 26.0462 39.0492C25.7429 39.0747 25.4415 38.9812 25.2059 38.7884C24.9703 38.5956 24.819 38.3187 24.7839 38.0164H27.9176C27.9265 37.9017 27.9352 37.7869 27.9352 37.6633C27.9265 36.3481 27.1143 35.4477 25.9315 35.4477ZM25.9138 36.2686C26.1911 36.2632 26.4592 36.368 26.6594 36.5599C26.8596 36.7519 26.9756 37.0153 26.9819 37.2926H24.7928C24.8089 37.0093 24.9352 36.7436 25.1447 36.5523C25.3542 36.3609 25.6302 36.2591 25.9138 36.2686ZM48.944 37.6633V33.8589H48.0259V36.0656C47.8692 35.8637 47.6664 35.7022 47.4345 35.5947C47.2026 35.4872 46.9484 35.4368 46.693 35.4477C46.1242 35.4756 45.5878 35.7212 45.1951 36.1337C44.8023 36.5461 44.5833 37.0938 44.5833 37.6634C44.5833 38.2329 44.8023 38.7806 45.1951 39.1931C45.5878 39.6055 46.1242 39.8511 46.693 39.879C46.9484 39.8899 47.2027 39.8395 47.4345 39.732C47.6664 39.6245 47.8692 39.463 48.0259 39.261V39.7731H48.944V37.6633ZM50.4743 39.1616C50.5313 39.1612 50.5878 39.1724 50.6403 39.1945C50.6909 39.2156 50.7369 39.2461 50.776 39.2844C50.8148 39.3227 50.8459 39.368 50.8674 39.418C50.8895 39.4694 50.9009 39.5248 50.9009 39.5807C50.9009 39.6367 50.8895 39.692 50.8674 39.7434C50.8457 39.7932 50.8147 39.8384 50.776 39.8765C50.7368 39.9148 50.6908 39.9455 50.6403 39.9669C50.5879 39.9894 50.5313 40.0008 50.4743 40.0004C50.3903 40.0012 50.3079 39.9773 50.2374 39.9316C50.167 39.8859 50.1115 39.8204 50.0781 39.7434C50.056 39.692 50.0447 39.6366 50.0447 39.5807C50.0447 39.5248 50.056 39.4695 50.0781 39.418C50.0996 39.3681 50.1305 39.3227 50.1691 39.2844C50.2081 39.2458 50.2544 39.2153 50.3053 39.1945C50.3588 39.1723 50.4163 39.1611 50.4743 39.1616ZM50.4743 39.9078C50.5178 39.9082 50.5609 39.8994 50.6008 39.8821C50.6391 39.8655 50.674 39.8418 50.7035 39.8122C50.7645 39.7507 50.7986 39.6675 50.7986 39.5809C50.7986 39.4943 50.7645 39.4112 50.7035 39.3496C50.674 39.3202 50.6391 39.2966 50.6008 39.2803C50.5608 39.2633 50.5177 39.2547 50.4743 39.2551C50.43 39.2548 50.3862 39.2633 50.3453 39.2803C50.3063 39.2964 50.2709 39.3199 50.241 39.3496C50.18 39.4112 50.1458 39.4943 50.1458 39.5809C50.1458 39.6676 50.18 39.7507 50.241 39.8122C50.2709 39.842 50.3064 39.8658 50.3453 39.8821C50.3861 39.8994 50.43 39.9081 50.4743 39.9078ZM50.4989 39.3846C50.5402 39.3819 50.5812 39.3937 50.6146 39.418C50.628 39.429 50.6386 39.443 50.6456 39.4588C50.6527 39.4745 50.6559 39.4917 50.6552 39.509C50.6557 39.5238 50.653 39.5385 50.6475 39.5522C50.6419 39.566 50.6335 39.5783 50.6229 39.5886C50.5973 39.6113 50.5649 39.6249 50.5308 39.6272L50.6583 39.7742H50.5586L50.4404 39.6282H50.4024V39.7742H50.3191V39.3846H50.4989ZM50.4024 39.4576V39.5615H50.498C50.5163 39.5624 50.5346 39.5579 50.5504 39.5485C50.5569 39.5442 50.562 39.5383 50.5655 39.5314C50.5689 39.5245 50.5704 39.5167 50.5699 39.509C50.5703 39.5014 50.5687 39.4939 50.5653 39.4871C50.5619 39.4803 50.5568 39.4746 50.5504 39.4704C50.5345 39.4612 50.5163 39.4567 50.498 39.4576H50.4024ZM45.5279 37.6633C45.5421 37.4143 45.6289 37.1749 45.7776 36.9747C45.9263 36.7745 46.1303 36.6222 46.3645 36.5365C46.5987 36.4508 46.8528 36.4356 47.0956 36.4926C47.3384 36.5497 47.5591 36.6765 47.7307 36.8575C47.9022 37.0385 48.017 37.2658 48.0609 37.5113C48.1049 37.7568 48.076 38.0097 47.9778 38.239C47.8797 38.4683 47.7167 38.6638 47.5087 38.8015C47.3008 38.9392 47.0571 39.013 46.8078 39.0139C46.633 39.0162 46.4596 38.9824 46.2985 38.9144C46.1375 38.8464 45.9922 38.7458 45.872 38.6189C45.7517 38.492 45.6591 38.3416 45.5999 38.1771C45.5406 38.0126 45.5161 37.8377 45.5279 37.6633ZM14.5267 37.6633V35.5537H13.6087V36.0656C13.452 35.8637 13.2492 35.7022 13.0173 35.5947C12.7854 35.4872 12.5311 35.4368 12.2758 35.4477C11.7069 35.4756 11.1706 35.7212 10.7779 36.1337C10.3852 36.5461 10.1661 37.0938 10.1661 37.6634C10.1661 38.2329 10.3852 38.7806 10.7779 39.1931C11.1706 39.6055 11.7069 39.8511 12.2758 39.879C12.5311 39.8899 12.7854 39.8395 13.0173 39.732C13.2492 39.6245 13.452 39.463 13.6087 39.261V39.7731H14.5267V37.6633ZM11.1106 37.6633C11.1249 37.4143 11.2117 37.1749 11.3604 36.9747C11.509 36.7745 11.7131 36.6222 11.9473 36.5365C12.1815 36.4508 12.4356 36.4356 12.6784 36.4926C12.9212 36.5497 13.1419 36.6765 13.3135 36.8575C13.485 37.0385 13.5998 37.2658 13.6437 37.5113C13.6877 37.7568 13.6588 38.0097 13.5606 38.239C13.4625 38.4683 13.2994 38.6638 13.0915 38.8015C12.8836 38.9392 12.6399 39.013 12.3905 39.0139C12.2157 39.0162 12.0424 38.9824 11.8813 38.9144C11.7202 38.8464 11.575 38.7458 11.4548 38.6189C11.3345 38.492 11.2419 38.3416 11.1826 38.1771C11.1234 38.0126 11.0989 37.8377 11.1106 37.6633Z" fill="white"/>
<path d="M32.6636 3.39697H18.7589V28.3842H32.6636V3.39697Z" fill="#FF5F00"/>
<path d="M19.6419 15.8911C19.6397 13.4847 20.185 11.1093 21.2366 8.94474C22.2881 6.7802 23.8184 4.88325 25.7114 3.39753C23.3671 1.55488 20.5517 0.408965 17.587 0.0907573C14.6223 -0.22745 11.6278 0.294891 8.9459 1.59808C6.26399 2.90126 4.00282 4.93271 2.42087 7.46023C0.838922 9.98775 0 12.9094 0 15.8911C0 18.8729 0.838922 21.7945 2.42087 24.322C4.00282 26.8496 6.26399 28.881 8.9459 30.1842C11.6278 31.4874 14.6223 32.0097 17.587 31.6915C20.5517 31.3733 23.3671 30.2274 25.7114 28.3847C23.8184 26.899 22.2882 25.0021 21.2366 22.8375C20.1851 20.673 19.6397 18.2976 19.6419 15.8911Z" fill="#EB001B"/>
<path d="M51.422 15.8911C51.4221 18.8728 50.5833 21.7945 49.0014 24.322C47.4196 26.8495 45.1585 28.881 42.4766 30.1842C39.7948 31.4874 36.8004 32.0097 33.8357 31.6915C30.871 31.3733 28.0556 30.2274 25.7114 28.3847C27.6028 26.8975 29.1318 25.0003 30.1832 22.8361C31.2346 20.6719 31.7809 18.2972 31.7809 15.8911C31.7809 13.4851 31.2346 11.1104 30.1832 8.94621C29.1318 6.78201 27.6028 4.88475 25.7114 3.39753C28.0556 1.55487 30.871 0.408959 33.8357 0.0907545C36.8004 -0.227449 39.7948 0.294901 42.4766 1.5981C45.1585 2.9013 47.4196 4.93276 49.0014 7.46028C50.5833 9.9878 51.4221 12.9094 51.422 15.8911Z" fill="#F79E1B"/>
<path d="M49.9056 25.7379V25.2263H50.1119V25.1221H49.5865V25.2263H49.7929V25.7379H49.9056ZM50.9255 25.7379V25.1211H50.7645L50.5793 25.5454L50.394 25.1211H50.2329V25.7379H50.3466V25.2726L50.5203 25.6738H50.6382L50.8119 25.2716V25.7379H50.9255Z" fill="#F79E1B"/>
</svg>
