<svg width="143" height="30" viewBox="0 0 143 30" fill="none" xmlns="http://www.w3.org/2000/svg">
<g clip-path="url(#clip0_4052_19961)">
<mask id="mask0_4052_19961" style="mask-type:luminance" maskUnits="userSpaceOnUse" x="0" y="4" width="22" height="22">
<path d="M21.9518 4.375H0.627197V25.625H21.9518V4.375Z" fill="white"/>
</mask>
<g mask="url(#mask0_4052_19961)">
<path d="M19.7272 8.50342C20.2305 9.15171 20.6608 9.86007 21.0049 10.6152L11.2901 17.7505L7.23108 15.215V12.1645L11.2901 14.7001L19.7272 8.50342Z" fill="#21A038"/>
<path d="M3.09044 14.9999C3.09044 14.8631 3.09378 14.7271 3.10048 14.5919L0.640594 14.4692C0.632221 14.6452 0.627197 14.8222 0.627197 14.9999C0.627197 17.9335 1.82031 20.59 3.7502 22.5132L5.49423 20.7752C4.01059 19.2951 3.09044 17.2526 3.09044 14.9999Z" fill="url(#paint0_linear_4052_19961)"/>
<path d="M11.2892 6.82882C11.4265 6.82882 11.563 6.83383 11.6986 6.8405L11.8217 4.38835C11.6451 4.38001 11.4676 4.375 11.2892 4.375C8.34542 4.375 5.67953 5.56395 3.74963 7.48712L5.49366 9.22506C6.97896 7.74494 9.02857 6.82882 11.2892 6.82882Z" fill="url(#paint1_linear_4052_19961)"/>
<path d="M11.2896 23.1703C11.1523 23.1703 11.0158 23.167 10.8802 23.1603L10.7571 25.6117C10.9337 25.62 11.1112 25.6249 11.2896 25.6249C14.2334 25.6249 16.8992 24.436 18.8292 22.5129L17.0851 20.7749C15.5998 22.2534 13.5501 23.1703 11.2896 23.1703Z" fill="url(#paint2_linear_4052_19961)"/>
<path d="M15.9129 8.25473L17.9869 6.73204C16.1567 5.25774 13.8274 4.375 11.2904 4.375V6.82966C13.0044 6.82882 14.596 7.35613 15.9129 8.25473Z" fill="url(#paint3_linear_4052_19961)"/>
<path d="M21.9518 14.9997C21.9518 14.3497 21.8932 13.714 21.781 13.0957L19.486 14.7811C19.4876 14.8537 19.4894 14.9262 19.4894 14.9988C19.4894 17.3976 18.4461 19.5586 16.7883 21.0546L18.4436 22.8776C20.5979 20.9345 21.9518 18.1243 21.9518 14.9997Z" fill="#21A038"/>
<path d="M11.2904 23.1705C8.88324 23.1705 6.71468 22.1309 5.21347 20.479L3.38403 22.1284C5.33487 24.276 8.1548 25.6251 11.2904 25.6251V23.1705Z" fill="url(#paint4_linear_4052_19961)"/>
<path d="M5.79147 8.94366L4.13618 7.12061C1.98106 9.06463 0.627197 11.8747 0.627197 14.9994H3.09044C3.09128 12.5998 4.13367 10.4396 5.79147 8.94366Z" fill="url(#paint5_linear_4052_19961)"/>
</g>
<path d="M34.3098 13.8411C32.7444 13.477 31.3927 13.1648 31.3927 12.0887C31.3927 10.6484 33.1934 10.4923 33.9665 10.4923C34.8233 10.458 35.6757 10.631 36.4489 10.9961L38.6097 9.43048C37.2165 8.59373 35.6197 8.14271 33.988 8.125C29.9282 8.125 28.4829 10.2535 28.4829 12.2424C28.4829 15.1064 31.0134 15.7048 33.2438 16.2297C34.8115 16.6011 36.1657 16.9204 36.1657 18.013C36.1657 18.5735 35.8271 19.5124 33.5535 19.5124C32.0025 19.4976 30.4921 19.022 29.22 18.1477L28.2236 20.3661C29.4241 21.2838 31.4936 21.875 33.5247 21.875C36.8859 21.875 39.0683 20.2669 39.0683 17.7765C39.0683 14.948 36.5353 14.3591 34.3098 13.8411Z" fill="#21A038"/>
<path d="M51.3989 14.7948L51.2597 14.7475L51.387 14.6789C51.9219 14.4047 52.3675 13.9873 52.6724 13.4749C52.9772 12.9624 53.1292 12.3756 53.1108 11.7818C53.1108 9.63679 51.2646 8.35498 48.1723 8.35498H41.7788V21.6485H48.5492C51.9104 21.6485 53.771 20.3714 53.771 18.0514C53.771 16.4715 52.9067 15.2844 51.3989 14.7948ZM44.691 10.5686H47.793C49.7497 10.5686 50.1601 11.4578 50.1601 12.1957C50.1601 13.2647 49.3415 13.8204 47.793 13.8204H44.691V10.5686ZM48.3236 19.4373H44.691V16.034H48.3236C49.9801 16.034 50.8204 16.5993 50.8204 17.7345C50.8204 18.8697 50.0041 19.4373 48.3236 19.4373Z" fill="#21A038"/>
<path d="M63.6365 10.5692L66.6856 8.35791H56.4819V21.6491H66.6856V19.4378H59.3942V16.0322H65.6147V13.821H59.3942V10.5692H63.6365Z" fill="#21A038"/>
<path d="M80.9079 21.6491L77.9429 17.3306C79.6859 16.5833 80.699 15.0981 80.699 13.1138C80.699 10.1789 78.4975 8.35791 74.9514 8.35791H69.3958V21.6491H72.3081V17.8841H75.189L77.7772 21.6515L80.9079 21.6491ZM72.3081 10.5692H74.8842C76.752 10.5692 77.7796 11.475 77.7796 13.121C77.7796 14.767 76.7569 15.6705 74.8842 15.6705H72.3081V10.5692Z" fill="#21A038"/>
<path d="M87.1798 15C87.1798 6.71572 93.9191 0 102.232 0H127.32C135.633 0 142.373 6.71572 142.373 15C142.373 23.2843 135.633 30 127.32 30H102.232C93.9191 30 87.1798 23.2843 87.1798 15Z" fill="url(#paint6_linear_4052_19961)"/>
<path d="M87.1798 15C87.1798 6.71572 93.9191 0 102.232 0H127.32C135.633 0 142.373 6.71572 142.373 15C142.373 23.2843 135.633 30 127.32 30H102.232C93.9191 30 87.1798 23.2843 87.1798 15Z" fill="url(#paint7_radial_4052_19961)" fill-opacity="0.2"/>
<path d="M87.1798 15C87.1798 6.71572 93.9191 0 102.232 0H127.32C135.633 0 142.373 6.71572 142.373 15C142.373 23.2843 135.633 30 127.32 30H102.232C93.9191 30 87.1798 23.2843 87.1798 15Z" fill="url(#paint8_radial_4052_19961)"/>
<path d="M87.1798 15C87.1798 6.71572 93.9191 0 102.232 0H127.32C135.633 0 142.373 6.71572 142.373 15C142.373 23.2843 135.633 30 127.32 30H102.232C93.9191 30 87.1798 23.2843 87.1798 15Z" fill="url(#paint9_radial_4052_19961)"/>
<path d="M103.331 16.87V21.1079H100.978V7.5H105.37C109.53 7.5 111.305 9.03584 111.305 12.1075C111.305 15.277 109.225 16.8772 105.37 16.8772L103.331 16.87ZM103.331 9.7346V14.6355H105.529C107.716 14.6355 108.846 13.8961 108.846 12.0479C108.846 10.3785 107.866 9.7346 105.568 9.7346H103.331Z" fill="white"/>
<path d="M112.734 12.0672C113.356 11.5902 114.486 11.1943 116.106 11.1943C118.857 11.1943 120.213 12.165 120.213 14.693V21.1081H118.133V19.3577C117.682 20.4857 116.531 21.2656 115.024 21.2656C113.122 21.2656 111.992 20.159 111.992 18.2535C111.992 16.0356 113.554 15.4155 115.873 15.4155H118.011V14.9838C118.011 13.6031 117.371 13.1761 116.108 13.1761C114.375 13.1761 113.376 13.8773 112.736 14.9076L112.734 12.0672ZM118.011 17.6858V16.8893H116.145C114.846 16.8893 114.225 17.1421 114.225 18.0173C114.225 18.7567 114.752 19.2217 115.732 19.2217C117.218 19.2217 117.916 18.3488 118.011 17.6858Z" fill="white"/>
<path d="M121.117 11.3872H123.586L126.167 18.0648L128.278 11.3872H130.614L126.845 22.138C126.016 24.4705 125.169 24.9999 123.926 24.9999C123.341 24.9999 122.7 24.8234 122.416 24.5707V22.4505C122.722 22.7517 123.126 22.9222 123.549 22.9275C124.226 22.9275 124.735 22.4505 125.093 21.1388L121.117 11.3872Z" fill="white"/>
</g>
<defs>
<linearGradient id="paint0_linear_4052_19961" x1="3.48698" y1="22.2055" x2="0.998006" y2="14.9857" gradientUnits="userSpaceOnUse">
<stop offset="0.1444" stop-color="#F2E913"/>
<stop offset="0.3037" stop-color="#E7E518"/>
<stop offset="0.5823" stop-color="#CADB26"/>
<stop offset="0.891" stop-color="#A3CD39"/>
</linearGradient>
<linearGradient id="paint1_linear_4052_19961" x1="4.45361" y1="7.21306" x2="10.8308" y2="4.77433" gradientUnits="userSpaceOnUse">
<stop offset="0.0592" stop-color="#0FA8E0"/>
<stop offset="0.5385" stop-color="#0099F9"/>
<stop offset="0.9234" stop-color="#0291EB"/>
</linearGradient>
<linearGradient id="paint2_linear_4052_19961" x1="10.5945" y1="23.5475" x2="18.1928" y2="21.8243" gradientUnits="userSpaceOnUse">
<stop offset="0.1226" stop-color="#A3CD39"/>
<stop offset="0.2846" stop-color="#86C339"/>
<stop offset="0.8693" stop-color="#21A038"/>
</linearGradient>
<linearGradient id="paint3_linear_4052_19961" x1="10.7751" y1="5.93195" x2="17.0946" y2="7.88862" gradientUnits="userSpaceOnUse">
<stop offset="0.0566" stop-color="#0291EB"/>
<stop offset="0.79" stop-color="#0C8ACB"/>
</linearGradient>
<linearGradient id="paint4_linear_4052_19961" x1="4.00187" y1="22.5234" x2="10.7896" y2="25.0683" gradientUnits="userSpaceOnUse">
<stop offset="0.1324" stop-color="#F2E913"/>
<stop offset="0.2977" stop-color="#EBE716"/>
<stop offset="0.5306" stop-color="#D9E01F"/>
<stop offset="0.8023" stop-color="#BBD62D"/>
<stop offset="0.9829" stop-color="#A3CD39"/>
</linearGradient>
<linearGradient id="paint5_linear_4052_19961" x1="2.50881" y1="15.2967" x2="5.19969" y2="8.27218" gradientUnits="userSpaceOnUse">
<stop offset="0.0698" stop-color="#A3CD39"/>
<stop offset="0.2599" stop-color="#81C55F"/>
<stop offset="0.9216" stop-color="#0FA8E0"/>
</linearGradient>
<linearGradient id="paint6_linear_4052_19961" x1="85.6517" y1="-2.35956e-06" x2="145.015" y2="0.358118" gradientUnits="userSpaceOnUse">
<stop stop-color="#1EDB01"/>
<stop offset="1" stop-color="#00C746"/>
</linearGradient>
<radialGradient id="paint7_radial_4052_19961" cx="0" cy="0" r="1" gradientUnits="userSpaceOnUse" gradientTransform="translate(130.331 30) rotate(-135.1) scale(45.3343 54.8395)">
<stop stop-color="#00A7FA"/>
<stop offset="1" stop-color="#00A7FA" stop-opacity="0"/>
</radialGradient>
<radialGradient id="paint8_radial_4052_19961" cx="0" cy="0" r="1" gradientUnits="userSpaceOnUse" gradientTransform="translate(133.04 29.5) rotate(180) scale(24.1846 30.0982)">
<stop stop-color="#00A7FA"/>
<stop offset="1" stop-color="#00A7FA" stop-opacity="0"/>
</radialGradient>
<radialGradient id="paint9_radial_4052_19961" cx="0" cy="0" r="1" gradientUnits="userSpaceOnUse" gradientTransform="translate(90.391 4.1) rotate(44.8997) scale(25.2172 30.433)">
<stop stop-color="#FAED01"/>
<stop offset="1" stop-color="#FAED01" stop-opacity="0"/>
</radialGradient>
<clipPath id="clip0_4052_19961">
<rect width="143" height="30" fill="white"/>
</clipPath>
</defs>
</svg>
