<svg width="80" height="40" viewBox="0 0 80 40" fill="none" xmlns="http://www.w3.org/2000/svg">
<g clip-path="url(#clip0_4052_19993)">
<path d="M70.1258 11.4181V21.1975H66.6198V14.3375H63.244V21.1975H59.738V11.4175H70.1258V11.4181Z" fill="white"/>
<path fill-rule="evenodd" clip-rule="evenodd" d="M52.5372 21.5467C55.676 21.5467 58.0067 19.63 58.0067 16.7247C58.0067 13.9124 56.2871 12.0863 53.4134 12.0863C52.0871 12.0863 50.9927 12.5514 50.1684 13.3537C50.3652 11.6954 51.7732 10.4847 53.3233 10.4847C53.6811 10.4847 56.3745 10.479 56.3745 10.479L57.8972 7.57568C57.8972 7.57568 54.5161 7.65235 52.9442 7.65235C49.3525 7.71502 46.9265 10.9667 46.9265 14.9157C46.9265 19.517 49.2926 21.547 52.5375 21.547L52.5372 21.5467ZM52.5566 14.6577C53.7219 14.6577 54.5298 15.4204 54.5298 16.7243C54.5298 17.8977 53.8119 18.865 52.5566 18.8677C51.3558 18.8677 50.5479 17.9717 50.5479 16.7444C50.5479 15.44 51.3558 14.6577 52.5566 14.6577Z" fill="white"/>
<path d="M44.0728 17.9233C44.0728 17.9233 43.2448 18.3986 42.0079 18.4886C40.5866 18.5306 39.3198 17.6363 39.3198 16.0473C39.3198 14.4973 40.4376 13.609 41.9724 13.609C42.9135 13.609 44.1585 14.2586 44.1585 14.2586C44.1585 14.2586 45.0694 12.5936 45.5413 11.761C44.6772 11.1086 43.5263 10.751 42.1876 10.751C38.8091 10.751 36.1924 12.945 36.1924 16.0276C36.1924 19.1496 38.6518 21.2926 42.1876 21.2276C43.1759 21.191 44.5393 20.8456 45.3703 20.314L44.0728 17.9233Z" fill="white"/>
<path d="M0.961914 8.70654L5.82529 17.3649V22.6462L0.967603 31.2875L0.961914 8.70654Z" fill="#5B57A2"/>
<path d="M19.6353 14.2145L24.1924 11.4325L33.5189 11.4238L19.6353 19.8952V14.2145Z" fill="#D90751"/>
<path d="M19.6095 8.65567L19.6353 20.119L14.7605 17.1357V0L19.6095 8.65567Z" fill="#FAB718"/>
<path d="M33.5189 11.4237L24.1921 11.4323L19.6095 8.65567L14.7605 0L33.5189 11.4237Z" fill="#ED6F26"/>
<path d="M19.6353 31.3355V25.7738L14.7605 22.8472L14.7632 39.9998L19.6353 31.3355Z" fill="#63B22F"/>
<path d="M24.1811 28.5789L5.82496 17.3649L0.961914 8.70654L33.4992 28.5675L24.1811 28.5789Z" fill="#1487C9"/>
<path d="M14.7634 40.0002L19.6348 31.3359L24.1806 28.5792L33.4987 28.5679L14.7634 40.0002Z" fill="#017F36"/>
<path d="M0.967529 31.2879L14.8003 22.8479L10.1498 20.0059L5.82522 22.6465L0.967529 31.2879Z" fill="#984995"/>
<path d="M39.321 27.7789C39.2139 27.9149 39.073 28.0176 38.904 28.0869C38.7306 28.1573 38.5451 28.193 38.3578 28.1923C38.1716 28.1948 37.9865 28.1639 37.8113 28.1009C37.654 28.044 37.5102 27.9553 37.389 27.8403C37.2693 27.7251 37.1753 27.5861 37.1132 27.4323C37.0459 27.2637 37.0124 27.0837 37.0145 26.9023C37.0145 26.7223 37.0456 26.5556 37.1102 26.3979C37.1693 26.2453 37.2593 26.1065 37.3746 25.9899C37.4895 25.8742 37.6253 25.7812 37.7749 25.7156C37.9298 25.6489 38.0988 25.6129 38.2846 25.6129C38.4847 25.6129 38.6704 25.6379 38.8394 25.6876C39.0084 25.7376 39.152 25.8209 39.2702 25.9376L39.0647 26.2843C38.9653 26.1946 38.8482 26.1265 38.721 26.0843C38.5999 26.0454 38.4734 26.0258 38.3461 26.0263C38.234 26.0263 38.1269 26.0483 38.0228 26.0896C37.9203 26.1309 37.8265 26.1913 37.7467 26.2676C37.6652 26.346 37.6009 26.4404 37.558 26.5449C37.5094 26.6587 37.4855 26.7814 37.4877 26.9049C37.4877 27.0413 37.5128 27.1633 37.5607 27.2683C37.6089 27.3769 37.6735 27.4683 37.7548 27.5459C37.8368 27.6239 37.9322 27.6819 38.0423 27.7209C38.154 27.7625 38.2724 27.7832 38.3917 27.7819C38.5436 27.7819 38.6818 27.7513 38.7999 27.6929C38.917 27.6366 39.0222 27.5586 39.1098 27.4629L39.321 27.7789ZM39.901 28.1339V25.6656H40.3461V27.5046L41.7935 25.6656H42.2386V28.1343H41.7935V26.2953L40.3461 28.1343L39.901 28.1339ZM45.1871 27.7789C45.0776 27.9161 44.9339 28.0223 44.7704 28.0869C44.5969 28.1572 44.4112 28.193 44.2239 28.1923C44.0378 28.1948 43.8528 28.1638 43.6777 28.1009C43.5203 28.044 43.3764 27.9553 43.255 27.8403C43.1353 27.7251 43.0414 27.5861 42.9793 27.4323C42.912 27.2637 42.8784 27.0837 42.8805 26.9023C42.8805 26.7223 42.9117 26.5556 42.9763 26.3979C43.0385 26.2396 43.1285 26.1039 43.2406 25.9899C43.3555 25.8742 43.4913 25.7812 43.6409 25.7156C43.8014 25.6452 43.9753 25.6102 44.1506 25.6129C44.3507 25.6129 44.5365 25.6379 44.7055 25.6876C44.8745 25.7376 45.0181 25.8209 45.1365 25.9376L44.9307 26.2843C44.8315 26.1945 44.7145 26.1264 44.5873 26.0843C44.4662 26.0454 44.3397 26.0259 44.2125 26.0263C43.9889 26.0271 43.7742 26.1135 43.6128 26.2676C43.5319 26.3466 43.4677 26.4409 43.424 26.5449C43.3755 26.6587 43.3515 26.7814 43.3538 26.9049C43.3538 27.0413 43.3792 27.1633 43.427 27.2683C43.4749 27.3769 43.5395 27.4683 43.6212 27.5459C43.7028 27.6239 43.7985 27.6819 43.9086 27.7209C44.0184 27.7596 44.1339 27.7819 44.2577 27.7819C44.41 27.7819 44.5452 27.7513 44.666 27.6929C44.783 27.6366 44.8882 27.5586 44.9759 27.4629L45.1871 27.7789ZM45.4153 25.6656H47.6991V26.1039H46.7811V28.1339H46.336V26.1039H45.418V25.6656H45.4153Z" fill="white"/>
<path fill-rule="evenodd" clip-rule="evenodd" d="M49.7776 28.1094C49.9466 28.0567 50.0902 27.976 50.214 27.8654L50.0788 27.5214C49.9972 27.5937 49.8874 27.6547 49.7552 27.7047C49.6227 27.7547 49.4734 27.7794 49.3101 27.7794C49.0651 27.7794 48.8623 27.7157 48.7017 27.5854C48.541 27.4547 48.454 27.272 48.4339 27.0387H50.3606C50.3811 26.9412 50.3905 26.8417 50.3887 26.742C50.3908 26.5838 50.3591 26.4268 50.2957 26.2817C50.238 26.147 50.1538 26.0253 50.048 25.9237C49.9408 25.8231 49.8143 25.7449 49.6762 25.6937C49.5316 25.6378 49.3778 25.6096 49.2227 25.6104C49.0142 25.6104 48.8312 25.6464 48.6705 25.713C48.5191 25.7766 48.3821 25.87 48.2679 25.9877C48.157 26.1048 48.0717 26.2436 48.0176 26.3954C47.9581 26.5569 47.9285 26.7279 47.9302 26.9C47.9302 27.0944 47.9637 27.2717 48.026 27.43C48.0862 27.5834 48.1784 27.7223 48.2964 27.8377C48.4118 27.951 48.5524 28.0374 48.7187 28.0984C48.8968 28.1613 49.0847 28.1922 49.2736 28.1897C49.4447 28.1887 49.6147 28.1613 49.7776 28.1094ZM48.6511 26.2094C48.789 26.0847 48.9721 26.0237 49.203 26.0237C49.4199 26.0237 49.5945 26.082 49.7214 26.1987C49.8482 26.315 49.9155 26.476 49.9269 26.681H48.4061C48.4277 26.4995 48.5148 26.3317 48.6511 26.2094Z" fill="white"/>
<path d="M50.9941 25.6655H51.3998L52.3629 26.8889L53.2752 25.6655H53.6695V28.1342H53.2244V26.3342L52.3572 27.4795H52.3402L51.4392 26.3339V28.1339H50.9941V25.6655Z" fill="white"/>
<path fill-rule="evenodd" clip-rule="evenodd" d="M54.88 25.674C54.745 25.7091 54.6161 25.7642 54.4975 25.8373L54.6156 26.1873C54.717 26.1373 54.8184 26.0956 54.9198 26.0596C55.0212 26.023 55.1508 26.0063 55.3057 26.0063C55.4295 26.0063 55.5283 26.0263 55.6042 26.065C55.6802 26.101 55.7364 26.1566 55.7759 26.2233C55.8154 26.29 55.8408 26.373 55.8549 26.47C55.8689 26.567 55.8746 26.6723 55.8746 26.7863C55.7835 26.7231 55.6795 26.6804 55.5701 26.6613C55.4645 26.6404 55.3572 26.6292 55.2495 26.628C55.117 26.628 54.9931 26.6476 54.8746 26.6806C54.7565 26.714 54.6551 26.764 54.5735 26.8306C54.49 26.8972 54.4225 26.9814 54.376 27.0773C54.3265 27.1823 54.3016 27.297 54.303 27.413C54.303 27.6543 54.3733 27.843 54.5139 27.9763C54.6551 28.1093 54.8408 28.1756 55.0718 28.1756C55.2803 28.1756 55.4466 28.1396 55.5731 28.0676C55.6999 27.9953 55.8013 27.9123 55.8743 27.8176V28.137H56.2913V26.6226C56.2913 26.3006 56.221 26.0513 56.0771 25.876C55.9365 25.7016 55.6855 25.6126 55.3308 25.6126C55.1732 25.6126 55.0236 25.635 54.88 25.674ZM55.6243 27.674C55.5229 27.746 55.39 27.779 55.2271 27.779C55.0831 27.779 54.9707 27.743 54.8921 27.6736C54.8131 27.6016 54.7736 27.507 54.7736 27.3903C54.7736 27.3216 54.7876 27.2633 54.8188 27.2103C54.8499 27.1573 54.8921 27.1163 54.9399 27.083C54.9923 27.0481 55.0504 27.0227 55.1116 27.008C55.1765 26.9913 55.2411 26.983 55.3087 26.983C55.5286 26.983 55.717 27.0356 55.872 27.1463V27.4596C55.799 27.5413 55.7157 27.6135 55.6243 27.674ZM60.2203 24.7973C60.3103 24.756 60.3943 24.6866 60.4736 24.584L60.2313 24.2373C60.1694 24.3206 60.0991 24.3786 60.0201 24.4093C59.9364 24.4419 59.8497 24.466 59.7611 24.4813L59.6768 24.4963C59.6032 24.509 59.5248 24.523 59.4402 24.537C59.3044 24.562 59.172 24.6029 59.0459 24.659C58.8458 24.745 58.6855 24.8613 58.564 25.0083C58.4425 25.1553 58.3475 25.3216 58.2826 25.505C58.2168 25.6907 58.1724 25.8833 58.1504 26.079C58.1276 26.279 58.1166 26.47 58.1166 26.653C58.1166 26.889 58.1474 27.1023 58.2093 27.2936C58.2715 27.4853 58.3585 27.646 58.4737 27.7763C58.5895 27.9096 58.7277 28.0096 58.891 28.0816C59.0543 28.1536 59.2374 28.1896 59.4429 28.1896C59.6316 28.1896 59.8063 28.1536 59.9639 28.087C60.1159 28.0229 60.2537 27.9297 60.3695 27.8126C60.482 27.6986 60.5723 27.5626 60.6339 27.4103C60.6986 27.2556 60.7312 27.0895 60.73 26.922C60.73 26.7363 60.7019 26.5673 60.6483 26.4173C60.599 26.2743 60.5204 26.1431 60.4174 26.032C60.3142 25.9227 60.1882 25.8374 60.0483 25.782C59.8941 25.7215 59.7297 25.6914 59.564 25.6933C59.4569 25.6933 59.3528 25.7073 59.2514 25.735C59.1528 25.7627 59.0581 25.8028 58.9696 25.8543C58.8838 25.9033 58.8052 25.9638 58.736 26.0343C58.6684 26.104 58.6122 26.1816 58.5727 26.2703H58.5613C58.5696 26.1529 58.5856 26.0362 58.6092 25.921C58.6346 25.8016 58.6711 25.6876 58.7193 25.5796C58.7672 25.4716 58.8291 25.3743 58.905 25.2856C58.9865 25.1961 59.0864 25.1252 59.1979 25.0776C59.3205 25.0195 59.4502 24.9776 59.5837 24.953L59.6721 24.937C59.7601 24.921 59.8441 24.9056 59.9244 24.889C60.0315 24.867 60.1299 24.8386 60.2203 24.7973ZM58.654 27.169C58.6106 27.0289 58.5898 26.8829 58.5925 26.7363C58.6113 26.6522 58.6457 26.5723 58.6939 26.5006C58.7434 26.4244 58.8053 26.3568 58.8769 26.3006C59.0423 26.1716 59.2468 26.1022 59.4569 26.104C59.7189 26.104 59.9161 26.184 60.054 26.3426C60.1922 26.5033 60.2598 26.7026 60.2598 26.9443C60.2598 27.0636 60.237 27.172 60.1979 27.2716C60.1598 27.37 60.1022 27.4597 60.0286 27.5355C59.955 27.6112 59.8669 27.6715 59.7695 27.7126C59.6684 27.757 59.5583 27.7793 59.4345 27.7793C59.3107 27.7793 59.1979 27.7543 59.0938 27.7043C58.9904 27.6553 58.899 27.5843 58.8261 27.4963C58.7497 27.3982 58.6916 27.2874 58.6544 27.169H58.654ZM64.1432 25.6656H63.6981V28.1343H64.1432V25.6656ZM61.3719 25.6656H61.817V26.4063H62.2283C62.4224 26.4063 62.5797 26.4313 62.7069 26.4783C62.8337 26.5256 62.9351 26.5893 63.0111 26.667C63.087 26.7446 63.1406 26.8363 63.1717 26.9386C63.2025 27.0413 63.2196 27.1466 63.2196 27.2576C63.2196 27.3686 63.2025 27.4743 63.166 27.5796C63.1322 27.685 63.073 27.7763 62.994 27.8596C62.9154 27.943 62.8083 28.0096 62.6727 28.0596C62.5378 28.1093 62.3745 28.137 62.1774 28.137H61.3692V25.6656H61.3719ZM61.817 26.819V27.7236H62.1409C62.3635 27.7236 62.5211 27.685 62.6111 27.607C62.7015 27.5293 62.7463 27.4186 62.7463 27.2716C62.7463 27.1216 62.6985 27.0083 62.6085 26.9303C62.5154 26.8526 62.3605 26.8136 62.1466 26.8136H61.817V26.819Z" fill="white"/>
<path d="M67.0864 27.7789C66.9793 27.9149 66.8384 28.0176 66.6694 28.0869C66.496 28.1572 66.3104 28.193 66.1232 28.1923C65.937 28.1948 65.7519 28.1639 65.5767 28.1009C65.4193 28.0441 65.2755 27.9554 65.1544 27.8403C65.0347 27.725 64.9406 27.586 64.8783 27.4323C64.8112 27.2636 64.7778 27.0836 64.7799 26.9023C64.7799 26.7223 64.8107 26.5556 64.8756 26.3979C64.9347 26.2453 65.0247 26.1065 65.14 25.9899C65.2531 25.8733 65.3876 25.7849 65.5402 25.7156C65.7007 25.6452 65.8746 25.6102 66.0499 25.6129C66.2497 25.6129 66.4358 25.6379 66.6048 25.6876C66.7738 25.7376 66.9174 25.8209 67.0355 25.9376L66.83 26.2843C66.7307 26.1946 66.6136 26.1265 66.4863 26.0843C66.3652 26.0454 66.2387 26.0258 66.1115 26.0263C65.9994 26.0263 65.8923 26.0483 65.7879 26.0896C65.6854 26.1309 65.5918 26.1913 65.5121 26.2676C65.4311 26.3465 65.367 26.4408 65.3234 26.5449C65.2748 26.6587 65.2509 26.7814 65.2531 26.9049C65.2531 27.0413 65.2782 27.1633 65.3261 27.2683C65.3739 27.3769 65.4388 27.4683 65.5202 27.5459C65.6022 27.6239 65.6975 27.6819 65.8076 27.7209C65.9177 27.7596 66.0332 27.7819 66.157 27.7819C66.2982 27.7837 66.4378 27.7533 66.5653 27.6929C66.6824 27.6366 66.7876 27.5586 66.8752 27.4629L67.0864 27.7789ZM67.314 25.6656H69.5984V26.1039H68.6801V28.1339H68.235V26.1039H67.3173V25.6656H67.314Z" fill="white"/>
<path fill-rule="evenodd" clip-rule="evenodd" d="M70.5276 25.6662H70.0825V29.2329H70.5276V28.0209C70.6177 28.0792 70.7247 28.1209 70.8486 28.1485C70.9724 28.1762 71.1019 28.1899 71.2344 28.1899C71.4316 28.1899 71.6089 28.1539 71.7696 28.0875C71.9236 28.0219 72.0633 27.9268 72.1805 27.8075C72.2969 27.6865 72.3869 27.5428 72.4449 27.3855C72.5072 27.2222 72.5383 27.0472 72.5383 26.8615C72.5383 26.6782 72.5102 26.5092 72.4566 26.3565C72.4062 26.2116 72.3278 26.0778 72.2257 25.9629C72.1256 25.8508 72.0014 25.7626 71.8623 25.7049C71.7102 25.6398 71.5459 25.6076 71.3804 25.6105C71.2063 25.6105 71.043 25.6439 70.8881 25.7105C70.7331 25.7772 70.612 25.8572 70.5276 25.9572V25.6662ZM70.8375 26.1239C70.9644 26.0572 71.1019 26.0239 71.2515 26.0239C71.381 26.0239 71.4965 26.0432 71.6009 26.0849C71.7023 26.1265 71.7866 26.1849 71.8573 26.2625C71.9275 26.3402 71.9811 26.4292 72.0146 26.5342C72.0514 26.6395 72.0681 26.7535 72.0681 26.8782C72.0681 27.0115 72.0457 27.1305 72.0065 27.2415C71.9696 27.3468 71.911 27.4432 71.8345 27.5245C71.7576 27.6049 71.6646 27.6682 71.5614 27.7102C71.4464 27.7582 71.3226 27.7818 71.198 27.7795C71.0772 27.7795 70.9644 27.7659 70.8573 27.7382C70.74 27.7064 70.6288 27.6558 70.528 27.5882V26.3649C70.6066 26.2709 70.711 26.1905 70.8375 26.1239ZM75.9512 25.6659H75.5061V28.1345H75.9512V25.6659ZM73.1775 25.6659H73.6226V26.4065H74.0336C74.2277 26.4065 74.3857 26.4315 74.5122 26.4785C74.6393 26.5259 74.7407 26.5895 74.8167 26.6672C74.8927 26.7449 74.9462 26.8365 74.977 26.9389C75.0081 27.0415 75.0249 27.1469 75.0249 27.2579C75.0249 27.3689 75.0081 27.4745 74.9713 27.5799C74.9379 27.6852 74.8786 27.7765 74.7996 27.8599C74.721 27.9432 74.6139 28.0099 74.4784 28.0599C74.3435 28.1095 74.1802 28.1372 73.9831 28.1372H73.1748V25.6659H73.1775ZM73.6256 26.8192V27.7239H73.9496C74.1718 27.7239 74.3298 27.6852 74.4198 27.6072C74.5098 27.5295 74.555 27.4189 74.555 27.2719C74.555 27.1219 74.5072 27.0085 74.4171 26.9305C74.3241 26.8529 74.1691 26.8139 73.9553 26.8139H73.6256V26.8192Z" fill="white"/>
<path d="M78.0865 26.8555L79.0383 28.1342H78.4922L77.7569 27.1355L77.0106 28.1342H76.4925L77.4386 26.8775L76.5484 25.6655H77.0953L77.774 26.5975L78.4634 25.6655H78.9821L78.0865 26.8555ZM38.9918 31.1852H37.626V33.2432H37.1809V30.7749H39.4366V33.2432H38.9915L38.9918 31.1852ZM41.9626 31.2129H41.0841L41.0557 31.6289C41.0249 31.9812 40.9827 32.2642 40.9235 32.4802C40.8642 32.6969 40.791 32.8632 40.7066 32.9795C40.6223 33.0962 40.5236 33.1762 40.4108 33.2155C40.2944 33.2575 40.1714 33.2782 40.0477 33.2765L40.0139 32.8492C40.0713 32.8505 40.1282 32.8382 40.1799 32.8132C40.2421 32.7855 40.3037 32.7245 40.3629 32.6332C40.4222 32.5385 40.4757 32.4055 40.5236 32.2332C40.5714 32.0589 40.6025 31.8315 40.6193 31.5455L40.6645 30.7772H42.4077V33.2459H41.9626V31.2129Z" fill="white"/>
<path fill-rule="evenodd" clip-rule="evenodd" d="M43.6074 30.7807C43.4635 30.8194 43.334 30.8747 43.2242 30.9441L43.3427 31.2937C43.4441 31.2437 43.5455 31.2021 43.6466 31.1661C43.748 31.1301 43.8775 31.1134 44.0324 31.1134C44.1563 31.1134 44.255 31.1327 44.331 31.1714C44.4073 31.2077 44.4635 31.2631 44.503 31.3297C44.5421 31.3964 44.5676 31.4797 44.5816 31.5764C44.5957 31.6737 44.6014 31.7791 44.6014 31.8927C44.5102 31.8296 44.4062 31.787 44.2968 31.7681C44.1912 31.7471 44.0839 31.736 43.9762 31.7347C43.844 31.7347 43.7198 31.7541 43.6014 31.7874C43.4832 31.8207 43.3818 31.8707 43.3002 31.9374C43.2167 32.0039 43.1492 32.0882 43.1027 32.1841C43.0533 32.289 43.0285 32.4038 43.0301 32.5197C43.0301 32.7607 43.1004 32.9497 43.2409 33.0827C43.3815 33.2157 43.5679 33.2824 43.7988 33.2824C44.0073 33.2824 44.1733 33.2464 44.3002 33.1741C44.4267 33.1021 44.5277 33.0187 44.6014 32.9241V33.2434H45.0184V31.7291C45.0184 31.4074 44.9477 31.1577 44.8042 30.9831C44.6633 30.8081 44.4126 30.7197 44.0579 30.7197C43.9057 30.7199 43.7542 30.7406 43.6074 30.7807ZM44.3537 32.7801C44.2526 32.8524 44.1201 32.8857 43.9568 32.8857C43.8102 32.8857 43.7004 32.8497 43.6218 32.7801C43.5428 32.7081 43.5033 32.6134 43.5033 32.4974C43.5033 32.4281 43.5174 32.3697 43.5485 32.3171C43.5793 32.2644 43.6218 32.2227 43.6696 32.1894C43.7175 32.1561 43.7764 32.1311 43.8413 32.1144C43.9057 32.0978 43.972 32.0895 44.0384 32.0897C44.258 32.0897 44.4467 32.1424 44.6017 32.2531V32.5664C44.5285 32.6478 44.4452 32.7198 44.3537 32.7801Z" fill="white"/>
<path d="M45.4543 30.7749H47.7384V31.2129H46.8201V33.2429H46.375V31.2129H45.4574V30.7749H45.4543Z" fill="white"/>
<path fill-rule="evenodd" clip-rule="evenodd" d="M49.8172 33.2185C49.9863 33.1658 50.1298 33.0852 50.2536 32.9745L50.1184 32.6305C50.0368 32.7028 49.927 32.7639 49.7945 32.8139C49.6623 32.8639 49.513 32.8885 49.3494 32.8885C49.1047 32.8885 48.9019 32.8248 48.7413 32.6945C48.5807 32.5642 48.4936 32.3812 48.4736 32.1479H50.4002C50.4196 32.0622 50.4283 31.9645 50.4283 31.8512C50.4283 31.6822 50.3972 31.5295 50.3353 31.3908C50.2776 31.2562 50.1933 31.1346 50.0873 31.0332C49.9803 30.9324 49.8539 30.854 49.7158 30.8028C49.5713 30.747 49.4174 30.7187 49.2624 30.7195C49.0539 30.7195 48.8708 30.7555 48.7102 30.8222C48.5586 30.8856 48.4217 30.979 48.3076 31.0969C48.1965 31.214 48.111 31.3528 48.0566 31.5045C47.9973 31.6662 47.9679 31.8371 47.9696 32.0092C47.9696 32.2035 48.003 32.3808 48.0653 32.5392C48.1275 32.6972 48.2202 32.8332 48.3357 32.9468C48.4511 33.0605 48.592 33.1465 48.7584 33.2075C48.9363 33.2705 49.1241 33.3016 49.3129 33.2992C49.4792 33.2992 49.6482 33.2712 49.8172 33.2185ZM48.6881 31.3158C48.826 31.1912 49.009 31.1302 49.2399 31.1302C49.4598 31.1302 49.6315 31.1912 49.7583 31.3049C49.8848 31.4215 49.9525 31.5822 49.9638 31.7875H48.4431C48.4646 31.6059 48.5516 31.4382 48.6881 31.3158ZM50.6452 30.7752H51.2085L52.0672 31.9652L51.1492 33.2435H50.603L51.5659 31.9648L50.6452 30.7752ZM52.177 30.7752H52.6221V33.2435H52.177V30.7752ZM54.2131 33.2435L53.2332 31.9648L54.1485 30.7748H53.5963L52.7319 31.9648L53.6612 33.2435H54.2131ZM56.2465 33.2185C56.4155 33.1658 56.5591 33.0852 56.6829 32.9745L56.5477 32.6305C56.4661 32.7028 56.3563 32.7639 56.2241 32.8139C56.0916 32.8639 55.9423 32.8885 55.779 32.8885C55.534 32.8885 55.3312 32.8248 55.1706 32.6945C55.0099 32.5642 54.9229 32.3812 54.9028 32.1479H56.8295C56.8493 32.0622 56.8576 31.9645 56.8576 31.8512C56.8576 31.6822 56.8268 31.5295 56.7646 31.3908C56.7069 31.2563 56.6227 31.1347 56.5169 31.0332C56.4098 30.9323 56.2833 30.854 56.1451 30.8028C56.0006 30.747 55.8467 30.7187 55.6917 30.7195C55.4835 30.7195 55.3001 30.7555 55.1394 30.8222C54.9881 30.8857 54.8512 30.9791 54.7372 31.0969C54.6259 31.2138 54.5404 31.3527 54.4862 31.5045C54.4268 31.6661 54.3973 31.8371 54.3992 32.0092C54.3992 32.2035 54.4326 32.3808 54.4949 32.5392C54.5568 32.6972 54.6498 32.8332 54.7653 32.9468C54.8808 33.0605 55.0213 33.1465 55.1876 33.2075C55.3657 33.2705 55.5536 33.3016 55.7425 33.2992C55.9137 33.2979 56.0836 33.2707 56.2465 33.2185ZM55.1174 31.3158C55.2556 31.1912 55.4386 31.1302 55.6696 31.1302C55.8864 31.1302 56.0608 31.1912 56.1876 31.3049C56.3145 31.4215 56.3817 31.5822 56.3931 31.7875H54.8724C54.8939 31.6059 54.9809 31.4382 55.1174 31.3158ZM58.6632 29.9458C58.4011 29.9458 58.2575 29.8015 58.2348 29.5132H57.8154C57.8154 29.6239 57.8352 29.7239 57.8717 29.8182C57.9085 29.9125 57.962 29.9929 58.0323 30.0595C58.1026 30.1262 58.1929 30.1789 58.2967 30.2202C58.4011 30.2619 58.5223 30.2812 58.6601 30.2812C58.7767 30.2835 58.8926 30.2627 59.0012 30.2202C59.1026 30.1815 59.1869 30.1262 59.2602 30.0595C59.332 29.9916 59.3885 29.9094 59.4262 29.8182C59.4657 29.7239 59.4854 29.6239 59.4854 29.5132H59.0688C59.0487 29.8015 58.9108 29.9458 58.6632 29.9458ZM57.4604 30.7748V33.2435H57.9055L59.3529 31.4045V33.2435H59.798V30.7748H59.3529L57.9055 32.6139V30.7748H57.4604Z" fill="white"/>
</g>
<defs>
<clipPath id="clip0_4052_19993">
<rect width="80" height="40" fill="white"/>
</clipPath>
</defs>
</svg>
