<svg width="74" height="20" viewBox="0 0 74 20" fill="none" xmlns="http://www.w3.org/2000/svg">
<path fill-rule="evenodd" clip-rule="evenodd" d="M7.13627 0.0034129C7.79131 -0.000505778 9.73804 -0.175839 10.5626 2.60718C11.1181 4.48186 12.0029 7.55266 13.2171 11.8196H13.7116C15.0137 7.3211 15.9081 4.25029 16.395 2.60718C17.2282 -0.204829 19.3111 0.00346801 20.1443 0.00346801L26.5726 0.00347603V20H20.0207V8.2157H19.5814L15.929 20H10.9996L7.34728 8.20697H6.90793V20H0.356079V0.00347603L7.13627 0.0034129ZM35.9809 0.00347603V11.7965H36.5036L40.9463 2.09918C41.8087 0.169386 43.6468 0.00347603 43.6468 0.00347603H49.987V20H43.2983V8.20697H42.7757L38.42 17.9043C37.5576 19.8254 35.6324 20 35.6324 20H29.2922V0.00347603H35.9809ZM73.1061 9.50596C72.1731 12.1499 69.2431 14.0433 65.9992 14.0433H58.9848V20H52.6242V9.50596H73.1061Z" fill="#0F754E"/>
<path fill-rule="evenodd" clip-rule="evenodd" d="M66.3058 0.00341797H52.2905C52.6241 4.45532 56.4579 8.26644 60.4268 8.26644H73.5479C74.3051 4.56639 71.6984 0.00341797 66.3058 0.00341797Z" fill="url(#paint0_linear_4052_20026)"/>
<defs>
<linearGradient id="paint0_linear_4052_20026" x1="2190.89" y1="519.783" x2="52.2905" y2="519.783" gradientUnits="userSpaceOnUse">
<stop stop-color="#1F5CD7"/>
<stop offset="1" stop-color="#02AEFF"/>
</linearGradient>
</defs>
</svg>
