<svg width="63" height="20" viewBox="0 0 63 20" fill="none" xmlns="http://www.w3.org/2000/svg">
<path d="M32.4528 6.39389C32.4175 9.17984 34.9358 10.7346 36.8327 11.6589C38.7817 12.6074 39.4364 13.2156 39.4289 14.0636C39.4139 15.3617 37.874 15.9345 36.4328 15.9568C33.9184 15.9959 32.4565 15.278 31.2942 14.735L30.3884 18.9734C31.5545 19.5109 33.7138 19.9795 35.9528 20C41.2088 20 44.6473 17.4056 44.666 13.3829C44.6865 8.27785 37.6045 7.99516 37.6529 5.71322C37.6696 5.02137 38.3298 4.28305 39.7765 4.09522C40.4927 4.00038 42.4695 3.92785 44.7107 4.96002L45.5904 0.859215C44.3851 0.420308 42.836 0 40.9073 0C35.9603 0 32.4807 2.62973 32.4528 6.39389ZM54.0429 0.353356C53.0832 0.353356 52.2744 0.913149 51.9135 1.77236L44.4056 19.6987H49.6577L50.7028 16.8105H57.1208L57.7273 19.6987H62.3561L58.3166 0.353356H54.0429ZM54.7777 5.57931L56.2934 12.8436H52.1423L54.7777 5.57931ZM26.085 0.353356L21.9451 19.6987H26.9499L31.0879 0.353356H26.085ZM18.6812 0.353356L13.472 13.5206L11.3649 2.32471C11.1175 1.07495 10.1412 0.353356 9.05692 0.353356H0.541022L0.421997 0.915007C2.17018 1.2944 4.15643 1.90627 5.3597 2.5609C6.09616 2.96076 6.30632 3.3104 6.54808 4.26075L10.5392 19.6987H15.8284L23.937 0.353356H18.6812Z" fill="#0000EE"/>
</svg>
